# xmcd
#
# Track frame offsets:
#	150
#	12655
#	28033
#	39519
#	54111
#	73666
#	85980
#	100792
#	116636
#	131226
#	142195
#	160859
#
# Disc length: 2387 seconds
#
# Revision: 1
# Processed by: cddbd v1.5.2PL0 Copyright (c) Steve Scherf et al.
# Submitted via: audiograbber 1.83.01
#
DISCID=a609510c
DTITLE=Rhinestone - Have A Good Time
DYEAR=1996
DGENRE=Country
TTITLE0=Have A Good Time
TTITLE1=You´ve Gone Away
TTITLE2=Country Music
TTITLE3=I Don´t Want A Woman (for just one night)
TTITLE4=I Stand Alone
TTITLE5=Where Are You Now
TTITLE6=Gotta Keep Going
TTITLE7=Forget All About You
TTITLE8=I Wouldn´t Let You Go
TTITLE9=What Happened To The Train
TTITLE10=Out Of Luck
TTITLE11=You`re Not The First
EXTD=
EXTT0=
EXTT1=
EXTT2=
EXTT3=
EXTT4=
EXTT5=
EXTT6=
EXTT7=
EXTT8=
EXTT9=
EXTT10=
EXTT11=
PLAYORDER=
